# xmcd CD database file
#
# Track frame offsets:
#	150
#	19087
#	38558
#
# Disc length: 731 seconds
#
# Revision: 0
# Processed by: cddbd v1.5.1PL2 Copyright (c) Steve Scherf et al.
# Submitted via: CDex 1.51
#
DISCID=1702d903
DTITLE=nirgilis - マイレボ
DYEAR=2005
DGENRE=Pop
TTITLE0=コモンガール
TTITLE1=My Revolution
TTITLE2=DESTROY J-POP
EXTD=YEAR: 2005
EXTT0=
EXTT1=
EXTT2=
PLAYORDER=
